<svg width="32" height="32" viewBox="0 0 32 32" fill="none" xmlns="http://www.w3.org/2000/svg">
<path d="M29 14.6667V22.6667C29.0783 23.3422 29.0028 24.0267 28.7792 24.669C28.5557 25.3113 28.1897 25.8946 27.7089 26.3755C27.228 26.8564 26.6446 27.2223 26.0023 27.4459C25.3601 27.6695 24.6755 27.745 24 27.6667H8C7.32446 27.745 6.63995 27.6695 5.99769 27.4459C5.35542 27.2223 4.77203 26.8564 4.29115 26.3755C3.81027 25.8946 3.44435 25.3113 3.22076 24.669C2.99717 24.0267 2.9217 23.3422 3 22.6667V9.33334C2.9217 8.6578 2.99717 7.97329 3.22076 7.33103C3.44435 6.68876 3.81027 6.10537 4.29115 5.62449C4.77203 5.14361 5.35542 4.77769 5.99769 4.5541C6.63995 4.33051 7.32446 4.25504 8 4.33334H18.6667C18.9319 4.33334 19.1862 4.4387 19.3738 4.62623C19.5613 4.81377 19.6667 5.06812 19.6667 5.33334C19.6667 5.59856 19.5613 5.85291 19.3738 6.04045C19.1862 6.22798 18.9319 6.33334 18.6667 6.33334H8C5.89734 6.33334 5 7.23067 5 9.33334V21.6667L8.38667 18.28C8.63841 18.0302 8.97869 17.89 9.33333 17.89C9.68798 17.89 10.0283 18.0302 10.28 18.28L11.5333 19.5333C11.658 19.6555 11.8255 19.7239 12 19.7239C12.1745 19.7239 12.342 19.6555 12.4667 19.5333L19.0533 12.9467C19.3051 12.6969 19.6454 12.5567 20 12.5567C20.3547 12.5567 20.6949 12.6969 20.9467 12.9467L27 19V14.6667C27 14.4015 27.1054 14.1471 27.2929 13.9596C27.4804 13.772 27.7348 13.6667 28 13.6667C28.2652 13.6667 28.5196 13.772 28.7071 13.9596C28.8946 14.1471 29 14.4015 29 14.6667ZM10.6573 10.3333C10.2147 10.3346 9.79056 10.5115 9.47819 10.8251C9.16582 11.1388 8.99072 11.5637 8.99134 12.0063C8.99195 12.449 9.16824 12.8734 9.48149 13.1862C9.79473 13.499 10.2193 13.6747 10.662 13.6747C11.1047 13.6747 11.5293 13.499 11.8425 13.1862C12.1558 12.8734 12.332 12.449 12.3327 12.0063C12.3333 11.5637 12.1582 11.1388 11.8458 10.8251C11.5334 10.5115 11.1094 10.3346 10.6667 10.3333H10.6573Z" fill="#9AA2B1"/>
<path fill-rule="evenodd" clip-rule="evenodd" d="M25.8667 1.8667C22.6266 1.8667 20 4.49329 20 7.73337C20 10.9734 22.6266 13.6 25.8667 13.6C29.1067 13.6 31.7333 10.9734 31.7333 7.73337C31.7333 4.49329 29.1067 1.8667 25.8667 1.8667ZM25.0844 6.49293V10.08H26.6489V6.49293L27.6602 7.50426L28.7664 6.39803L26.4198 4.05136C26.1143 3.74589 25.619 3.74589 25.3136 4.05136L22.9669 6.39803L24.0731 7.50426L25.0844 6.49293Z" fill="#1C1C1C"/>
</svg>
